<?xml version="1.0" encoding="utf-8"?>
<!-- Generator: Adobe Illustrator 24.2.3, SVG Export Plug-In . SVG Version: 6.00 Build 0)  -->
<svg version="1.1" id="图层_1" xmlns="http://www.w3.org/2000/svg" xmlns:xlink="http://www.w3.org/1999/xlink" x="0px" y="0px"
	 viewBox="0 0 64 64" style="enable-background:new 0 0 64 64;" xml:space="preserve">
<path d="M27.32,39.8c0-3.36,0.8-6.36,3.95-10.82c3.58-5.12,4.53-8.26,4.53-12.13c0-3.65-1.46-5.04-4.02-5.04s-4.02,1.39-4.02,5.04
	v2.19c0,2.19-1.61,3.8-3.8,3.8s-3.8-1.61-3.8-3.8v-1.68c0-8.19,3.95-12.86,11.77-12.86s11.91,4.68,11.91,12.86
	c0,4.46-1.39,8.19-5.33,13.45c-3.14,4.24-4.17,6.72-4.17,9.28c0,1.9-1.68,3.29-3.51,3.29C28.86,43.38,27.32,41.77,27.32,39.8z
	 M26.59,53.92c0-3.08,1.9-5.58,4.24-5.58s4.24,2.5,4.24,5.58c0,3.08-1.9,5.58-4.24,5.58S26.59,57,26.59,53.92z"/>
<g>
</g>
<g>
</g>
<g>
</g>
<g>
</g>
<g>
</g>
<g>
</g>
<g>
</g>
<g>
</g>
<g>
</g>
<g>
</g>
<g>
</g>
</svg>
