<svg id="图层_1" data-name="图层 1" xmlns="http://www.w3.org/2000/svg" viewBox="0 0 378.72 879.7"><path d="M437.19,636.73c0-53.77,12.86-101.7,63.12-173,57.28-81.82,72.47-132.08,72.47-194,0-58.44-23.38-80.65-64.29-80.65s-64.29,22.21-64.29,80.65v35.07c0,35.07-25.71,60.78-60.78,60.78s-60.78-25.71-60.78-60.78V277.88c0-130.92,63.12-205.73,188.19-205.73S701.36,147,701.36,277.88c0,71.3-22.21,130.91-85.33,215.07-50.26,67.8-66.63,107.54-66.63,148.45,0,30.39-26.88,52.6-56.1,52.6C461.74,694,437.19,668.29,437.19,636.73ZM425.5,862.67c0-49.21,30.39-89.18,67.8-89.18s67.79,40,67.79,89.18-30.39,89.18-67.79,89.18S425.5,911.87,425.5,862.67Z" transform="translate(-322.64 -72.15)"/></svg>