<?xml version="1.0" encoding="utf-8"?>
<!-- Generator: Adobe Illustrator 24.2.3, SVG Export Plug-In . SVG Version: 6.00 Build 0)  -->
<svg version="1.1" id="Layer1" xmlns="http://www.w3.org/2000/svg" xmlns:xlink="http://www.w3.org/1999/xlink" x="0px" y="0px"
	 viewBox="0 0 1024 1024" style="enable-background:new 0 0 1024 1024;" xml:space="preserve">
<style type="text/css">
	.st0{fill:#FBB03B;stroke:#000000;stroke-width:10;stroke-miterlimit:10;}
	.st1{fill:none;stroke:#000000;stroke-width:22;stroke-linecap:round;stroke-miterlimit:10;}
</style>
<g>
	<g>
		<path d="M554,149.98l0.09-38.88l0.01-4.63l3.91-3.29l51.63-43.44l25.73-21.78l12.78-10.91l6.31-5.45l3.03-2.67l0.75-0.66
			c0.24-0.21,0.57-0.49,0.56-0.52c0.15-0.17,0.31-0.33,0.48-0.47l2.48-1.98c6.83-5.44,16.78-4.31,22.22,2.53
			c5.27,6.62,4.34,16.2-1.94,21.73c-0.89,0.78-1.79,1.55-2.71,2.29c-0.53,0.44-0.75,0.59-1.06,0.82l-0.89,0.66l-3.54,2.61l-6.93,5
			l-13.81,9.84l-27.62,19.5l-55.31,38.79l3.92-7.91L574,150.02c-0.01,5.52-4.5,9.99-10.02,9.98
			C558.45,159.99,553.99,155.5,554,149.98z"/>
	</g>
	<path class="st0" d="M511.4,151c-110.02,0-201.27,49.06-218.41,113.33c62.29,14.88,132.78,23.28,207.48,23.28
		c82.95,0,160.72-10.36,227.81-28.45C707.76,197.45,618.46,151,511.4,151z"/>
	<path class="st0" d="M273.21,260.61c-84.81,78.19-138.96,197.14-138.96,330.38c0,235.48,169.12,426.38,377.75,426.38
		s377.75-190.9,377.75-426.38c0-135.88-56.32-256.91-144.04-334.99c-71.35,19.89-155.21,31.36-244.95,31.36
		C418.22,287.35,340.65,277.64,273.21,260.61z"/>
	<line class="st1" x1="510.64" y1="1008.28" x2="510.63" y2="295.14"/>
	<path d="M405.44,419.46c23.18-8.52,62.03,20.21,61.48,53.28c-0.37,22.17-18.48,47.91-41.67,47.82
		c-24.05-0.1-38.87-27.93-41.67-47.82C380.78,452.74,388.04,425.85,405.44,419.46z"/>
	<path d="M203.67,734.89c0.32-0.99,0.79-1.56,1.37-1.76c4.5-1.54,15.98,25.15,22.61,46.5c1.8,5.8,11.66,37.57,7.06,39.54
		c-4.08,1.75-17.16-20.95-23.99-35.47C210.73,783.71,197.31,754.33,203.67,734.89z"/>
	<path d="M611.64,414.52c12.23-0.21,20.65,6.9,25.4,10.9c5.24,4.42,20.6,17.38,18.47,34.76c-2.18,17.72-21.75,33.36-41.28,30.41
		c-26.74-4.04-30.66-39.49-30.83-41.32c-0.5-5.25-1.54-16.16,5.85-24.94C596.69,415.48,607.83,414.58,611.64,414.52z"/>
	<path d="M735.83,324.83c2.55,1.51,20.28,11.94,17.73,27.86c-1.55,9.68-10.22,18.98-18.84,18.95c-13.72-0.05-20.36-23.7-22.16-30.09
		c-1.9-6.75-4.44-15.8,0-20.06C717.88,316.37,730.1,321.44,735.83,324.83z"/>
	<path d="M820.44,552.01c1.52,3.98,6.31,16.48,0.13,29.85c-4.36,9.43-13.66,18.2-19.05,16.18c-8.1-3.03-3.54-29.65-2.51-35.66
		c1.32-7.74,3.71-21.12,8.97-23.42C814.25,536.24,820.11,551.15,820.44,552.01z"/>
	<path d="M439.3,844.78c-1.9,11.25-13.25,22.32-25.26,22.65c-16.58,0.46-26.88-19.76-30.08-30.79c-3.36-11.57-4.14-31.05,4.88-35.81
		C402.9,793.41,443.44,820.26,439.3,844.78z"/>
	<path d="M747.88,812.63c3.08,3.37,2.46,13.72-1.35,21.99c-9.2,19.97-36.1,25.91-36.11,16.76c0-0.75,0.18-2.46,3.23-7.98
		C723.37,825.78,742.01,806.2,747.88,812.63z"/>
	<path d="M324.18,657.34c-6.74,10.64-27.09,10.99-37.96-2.56c-6.83-8.51-7.67-19.68-7.82-22.56c-1.06-20.1,10.03-43.36,19.7-45.5
		C314.65,583.05,335.49,639.49,324.18,657.34z"/>
	<path d="M652.29,769.17c-16,7.52-38.66,3.33-45.95-9.19c-12.07-20.73,17.36-65.32,43.65-64.33c10.74,0.41,17.63,8.3,18.38,9.19
		C682.17,721.16,676.51,757.79,652.29,769.17z"/>
	<path d="M301.61,303.33c6.88,5.02,1.25,27.44-9.56,42.35c-13.98,19.28-39.93,30.56-46.57,24.18c-6.02-5.78,3.96-25.94,11.58-36.87
		C270.25,314.07,293.86,297.68,301.61,303.33z"/>
	<path d="M403.06,223.29c-8.75,3.87-19.5,37-11.04,39.23c8.46,2.24,26.03-7.85,32.49-14.36
		C431.54,241.07,412.24,223.09,403.06,223.29z"/>
	<path d="M577.91,253.83c8.15,8.66,50.3,8.66,49.18-1.96c-1.12-10.62-20.12-27.15-30.27-32.17
		C585.76,214.23,573.73,243.28,577.91,253.83z"/>
	<path d="M509.83,264.01c36.95,1.26,38.11,22.74,37.62,22.93h-36.7h-36.7c0,0-2.67-8.16,0-12.51
		C482.19,261.17,507.28,263.92,509.83,264.01z"/>
	<g>
		<path d="M447.35,149.24l-0.09-38.88l3.92,7.91l-55.31-38.79l-27.62-19.5l-13.81-9.84l-6.93-5l-3.54-2.61l-0.89-0.66
			c-0.31-0.23-0.53-0.38-1.06-0.82c-0.91-0.75-1.82-1.51-2.71-2.29c-6.56-5.76-7.21-15.76-1.45-22.32
			c5.59-6.36,15.14-7.17,21.7-1.96l2.51,2c0.17,0.14,0.33,0.29,0.48,0.47c0,0.03,0.33,0.31,0.56,0.52l0.75,0.66l3.03,2.67l6.31,5.45
			l12.78,10.91l25.73,21.78l51.63,43.44l3.91,3.29l0.01,4.63l0.09,38.88c0.01,5.52-4.45,10.01-9.98,10.02
			C451.85,159.23,447.37,154.77,447.35,149.24z"/>
	</g>
</g>
<g>
</g>
<g>
</g>
<g>
</g>
<g>
</g>
<g>
</g>
<g>
</g>
<g>
</g>
<g>
</g>
<g>
</g>
<g>
</g>
<g>
</g>
</svg>
