<?xml version="1.0" encoding="utf-8"?>
<!-- Generator: Adobe Illustrator 24.2.3, SVG Export Plug-In . SVG Version: 6.00 Build 0)  -->
<svg version="1.1" id="Layer1" xmlns="http://www.w3.org/2000/svg" xmlns:xlink="http://www.w3.org/1999/xlink" x="0px" y="0px"
	 viewBox="0 0 1024 1024" style="enable-background:new 0 0 1024 1024;" xml:space="preserve">
<style type="text/css">
	.st0{fill:#8CC63F;stroke:#006837;stroke-width:10;stroke-linejoin:round;stroke-miterlimit:10;}
	.st1{fill:#006837;}
</style>
<path class="st0" d="M155,694c12.01,15.8,118,119,237,106s234.81-86.84,314-199c78.98-104.98,231.25-280.47,305.8-287.9
	c2.16-0.22,2.76-3.07,0.85-4.11c-66.4-36.17-144.88-78.77-283.65-117c-143.66-39.58-324.91-45.14-474,58
	C131.05,335.75,42.02,545.33,155,694z"/>
<g>
	<path class="st1" d="M999.33,312.4c-11.17-1.92-22.61-3.38-33.99-4.63c-11.4-1.25-22.83-2.24-34.27-3
		c-22.88-1.62-45.81-2.29-68.72-2.11c-45.81,0.37-91.58,4.27-136.47,12.54l-8.41,1.58l-4.2,0.79l-4.18,0.91l-8.35,1.82
		c-2.78,0.63-5.58,1.15-8.34,1.88l-16.58,4.14l-16.42,4.66c-21.79,6.53-43.16,14.34-63.88,23.52l-7.74,3.51l-3.87,1.75
		c-1.29,0.59-2.53,1.26-3.8,1.89l-15.15,7.67L550,377.59l-7.47,4.15l-7.33,4.39c-4.87,2.95-9.8,5.8-14.62,8.82l-14.32,9.26
		l-3.58,2.31l-3.49,2.44l-6.98,4.87l-6.98,4.87c-2.29,1.68-4.54,3.4-6.81,5.1c-18.23,13.51-35.63,28.07-52.16,43.61
		c-16.57,15.5-32.3,31.94-47.7,48.88c-15.42,16.92-30.56,34.33-46.41,51.4c-15.83,17.06-32.42,33.75-50.21,49.22l-6.74,5.73
		c-2.25,1.9-4.46,3.85-6.81,5.65l-6.95,5.49l-3.48,2.74l-1.74,1.37l-1.78,1.31l-14.32,10.42l-14.71,9.85
		c-19.85,12.78-40.52,24.13-61.61,34.5c-10.66,4.89-21.23,10.07-32.09,14.45l-8.1,3.41c-2.71,1.11-5.38,2.34-8.12,3.34l-16.38,6.28
		c-2.73,1.04-5.46,2.11-8.2,3.12l-8.27,2.88c-5.52,1.9-11.02,3.87-16.56,5.71c-2.76,0.94-5.58,1.69-8.41,2.42
		c-2.83,0.71-5.67,1.4-8.54,1.99c-5.73,1.18-11.51,2.19-17.46,2.55c-5.37,0.33-9.99-3.76-10.32-9.13c-0.23-3.78,1.72-7.19,4.77-8.99
		l0.19-0.11c10.15-5.97,20.84-9.91,31.6-13.61c5.37-1.88,10.78-3.62,16.16-5.44l8.09-2.7c2.68-0.95,5.33-1.96,7.99-2.93l15.97-5.89
		c2.68-0.94,5.27-2.09,7.9-3.14l7.87-3.21c10.58-4.11,20.78-8.97,31.12-13.55c20.39-9.73,40.3-20.35,59.37-32.3l14.13-9.21
		l13.75-9.75l1.72-1.23l1.67-1.29l3.34-2.57l6.68-5.14c2.26-1.68,4.39-3.52,6.56-5.31l6.5-5.39c17.19-14.55,33.42-30.34,49.18-46.83
		c15.77-16.47,31.14-33.63,47.03-50.54c15.87-16.92,32.27-33.58,49.61-49.32c17.28-15.79,35.63-30.47,54.67-44.06
		c2.38-1.71,4.73-3.44,7.13-5.12l7.29-4.88l7.29-4.88l3.64-2.44l3.72-2.31l14.89-9.24c5-3.01,10.11-5.84,15.15-8.76l7.59-4.35
		l7.72-4.1l15.44-8.18l15.84-7.65c1.33-0.62,2.63-1.3,3.97-1.88l4.04-1.74l8.07-3.48c21.59-9.09,43.75-16.71,66.23-22.99l16.92-4.46
		l17.04-3.92c2.83-0.69,5.71-1.17,8.56-1.76l8.57-1.7l4.28-0.85l4.31-0.72l8.61-1.45c45.98-7.37,92.5-10.19,138.86-9.47
		c23.18,0.37,46.34,1.6,69.4,3.78c11.53,1.09,23.04,2.41,34.51,4c11.49,1.59,22.88,3.37,34.37,5.67c1.87,0.38,3.09,2.2,2.71,4.08
		c-0.37,1.84-2.14,3.05-3.97,2.73L999.33,312.4z"/>
</g>
<g>
	<path class="st1" d="M318,560.61c4.5,1,8.72,2.08,13.03,3.23c4.29,1.15,8.54,2.36,12.79,3.63c8.49,2.54,16.9,5.32,25.24,8.34
		c16.67,6.05,33.07,13.05,48.89,21.45c15.78,8.43,31.08,18.24,44.73,30.58c6.82,6.16,13.17,13.02,18.69,20.66
		c5.51,7.65,10.09,16.18,13.21,25.38c1.51,4.45-0.88,9.27-5.33,10.78c-4.45,1.51-9.27-0.88-10.78-5.33
		c-0.01-0.04-0.02-0.07-0.04-0.11l-0.03-0.09c-2.36-7.41-5.95-14.51-10.52-21.12c-4.58-6.6-10.02-12.76-16.06-18.42
		c-12.07-11.35-26.2-20.88-41.04-29.17c-14.89-8.28-30.57-15.34-46.61-21.52c-8.02-3.09-16.15-5.94-24.35-8.57
		c-4.1-1.31-8.21-2.58-12.34-3.77c-4.1-1.19-8.33-2.34-12.33-3.32l-0.1-0.03c-3.47-0.85-5.6-4.35-4.75-7.82
		C311.14,561.96,314.57,559.84,318,560.61z"/>
</g>
<g>
	<path class="st1" d="M282.45,597.26c0.87-4.65,1.65-9.54,2.36-14.34c0.71-4.83,1.36-9.67,1.94-14.52c1.17-9.7,2.1-19.43,2.79-29.17
		c1.35-19.47,1.76-39,0.73-58.36c-1.05-19.34-3.48-38.59-8.42-56.94c-2.45-9.17-5.62-18.07-9.57-26.46
		c-4-8.36-8.87-16.17-14.75-22.94l-0.02-0.03c-3.08-3.55-2.7-8.91,0.85-11.99c3.55-3.08,8.91-2.7,11.99,0.85
		c0.03,0.03,0.08,0.09,0.11,0.13c6.93,8.31,12.38,17.54,16.72,27.08c4.28,9.57,7.55,19.43,10.01,29.4
		c4.93,19.94,7.04,40.17,7.75,60.28c0.67,20.12-0.15,40.17-1.92,60.08c-0.9,9.96-2.05,19.88-3.44,29.77
		c-0.7,4.94-1.45,9.88-2.28,14.81c-0.83,4.95-1.7,9.81-2.75,14.85c-0.69,3.34-3.96,5.49-7.3,4.8c-3.3-0.68-5.44-3.88-4.82-7.18
		L282.45,597.26z"/>
</g>
<g>
	<path class="st1" d="M416.44,457.17c0.59-3.36,1.1-6.99,1.56-10.51c0.46-3.55,0.84-7.12,1.19-10.69c0.67-7.14,1.14-14.3,1.4-21.47
		c0.54-14.32,0.19-28.65-1.12-42.83c-0.66-7.09-1.63-14.12-2.83-21.09c-1.21-6.97-2.8-13.84-4.64-20.61
		c-1.88-6.76-4.17-13.35-6.74-19.79c-2.66-6.4-5.74-12.57-9.15-18.5l-0.08-0.15c-2.35-4.07-0.95-9.27,3.12-11.61
		c4.07-2.35,9.27-0.95,11.61,3.12c0.05,0.08,0.11,0.19,0.15,0.27c3.61,6.84,6.77,13.85,9.43,21.02c2.57,7.19,4.78,14.46,6.52,21.82
		c1.7,7.36,3.11,14.76,4.11,22.19c0.99,7.43,1.72,14.87,2.13,22.31c0.8,14.88,0.59,29.75-0.53,44.51
		c-0.55,7.38-1.31,14.74-2.29,22.07c-0.5,3.67-1.03,7.33-1.65,10.98c-0.62,3.68-1.26,7.25-2.07,11.03c-0.6,2.79-3.36,4.56-6.15,3.96
		c-2.72-0.59-4.48-3.22-4-5.94L416.44,457.17z"/>
</g>
<g>
	<path class="st1" d="M436.91,440.76c2.5,0.21,4.78,0.47,7.15,0.77c2.35,0.29,4.68,0.63,7.02,0.97c4.66,0.71,9.3,1.53,13.92,2.44
		c9.24,1.81,18.4,4.06,27.47,6.67c18.12,5.27,35.87,12.17,52.72,21.16c8.39,4.55,16.54,9.63,24.35,15.29
		c7.75,5.73,15.07,12.13,21.86,19.1l4.94,5.4c0.85,0.88,1.57,1.87,2.35,2.81l2.3,2.86l2.29,2.87l2.1,3.02l2.1,3.02
		c0.7,1.01,1.42,2,2.02,3.08l3.77,6.34c0.66,1.04,1.19,2.15,1.74,3.26l1.65,3.31l1.65,3.31c0.54,1.11,0.96,2.27,1.44,3.41l2.79,6.86
		c1.77,4.35-0.32,9.31-4.67,11.08s-9.31-0.32-11.08-4.67c-0.03-0.07-0.06-0.14-0.08-0.21l-0.23-0.62l-2.26-6.09
		c-0.39-1.01-0.71-2.05-1.16-3.04l-1.36-2.95l-1.35-2.96c-0.45-0.99-0.88-1.99-1.44-2.92l-3.15-5.71c-0.49-0.97-1.12-1.87-1.71-2.78
		l-1.78-2.74l-1.78-2.75l-1.96-2.62l-1.97-2.62c-0.67-0.87-1.28-1.78-2.02-2.59l-4.28-5c-5.93-6.49-12.4-12.55-19.38-18.07
		c-7.03-5.45-14.47-10.44-22.22-14.98c-15.57-8.98-32.32-16.15-49.6-21.79c-8.65-2.8-17.43-5.26-26.31-7.31
		c-4.44-1.02-8.9-1.96-13.37-2.8c-2.24-0.41-4.48-0.8-6.72-1.15c-2.22-0.35-4.53-0.69-6.64-0.93l-0.08-0.01
		c-2.68-0.31-4.6-2.73-4.29-5.4C431.96,442.45,434.3,440.55,436.91,440.76z"/>
</g>
<g>
	<path class="st1" d="M537.35,369.93c0.19-0.37,0.5-0.98,0.75-1.51c0.26-0.55,0.52-1.12,0.77-1.69c0.5-1.14,0.98-2.31,1.44-3.49
		c0.91-2.37,1.71-4.79,2.46-7.23c1.44-4.9,2.55-9.9,3.31-14.95c0.76-5.05,1.18-10.15,1.26-15.24c0.09-5.09-0.15-10.19-0.77-15.23
		c-0.61-5.04-1.46-10.06-2.75-14.98c-0.55-2.48-1.37-4.89-2.05-7.33l-1.23-3.61l-0.62-1.8l-0.69-1.78
		c-3.66-9.48-8.39-18.56-13.97-27.12c-2.57-3.93-1.46-9.2,2.47-11.77c3.93-2.57,9.2-1.46,11.77,2.47c0.07,0.11,0.16,0.25,0.22,0.36
		c5.7,9.76,10.46,20.13,14.02,30.93l0.67,2.02l0.59,2.05l1.17,4.1c0.63,2.78,1.4,5.51,1.88,8.32c1.15,5.57,1.83,11.23,2.23,16.9
		c0.41,5.67,0.39,11.36,0.01,17.02c-0.38,5.66-1.12,11.28-2.25,16.83c-1.12,5.54-2.63,11-4.49,16.35c-0.96,2.66-1.99,5.3-3.14,7.91
		c-0.58,1.3-1.18,2.6-1.83,3.88c-0.33,0.64-0.65,1.29-1.01,1.93l-0.54,0.98l-0.62,1.07c-1.46,2.52-4.69,3.37-7.2,1.91
		c-2.43-1.41-3.31-4.47-2.05-6.95L537.35,369.93z"/>
</g>
<g>
	<path class="st1" d="M554.76,363.34c3.26,0.94,6.23,1.95,9.3,3.02c3.04,1.07,6.04,2.21,9.04,3.39c5.98,2.38,11.86,4.98,17.66,7.8
		c11.59,5.63,22.79,12.21,33.38,19.85c5.27,3.85,10.37,7.99,15.26,12.41c4.85,4.48,9.44,9.29,13.73,14.42
		c4.25,5.17,8.09,10.73,11.53,16.59c3.36,5.91,6.16,12.18,8.45,18.66c1.57,4.43-0.76,9.29-5.18,10.85s-9.29-0.75-10.85-5.18
		c-0.04-0.12-0.08-0.25-0.12-0.37l-0.07-0.24c-1.64-5.49-3.7-10.89-6.3-16.1c-2.68-5.16-5.76-10.17-9.27-14.94
		c-3.56-4.73-7.46-9.27-11.65-13.58c-4.24-4.26-8.74-8.32-13.45-12.16c-9.48-7.62-19.76-14.42-30.55-20.38
		c-5.4-2.98-10.91-5.78-16.52-8.35c-2.81-1.28-5.64-2.53-8.49-3.7c-2.83-1.16-5.77-2.32-8.53-3.28l-0.1-0.03
		c-2.37-0.82-3.63-3.41-2.81-5.79C550,363.92,552.46,362.68,554.76,363.34z"/>
</g>
<g>
	<path class="st1" d="M685.92,307.56l0.57-0.89l0.62-1c0.41-0.68,0.82-1.37,1.21-2.07c0.79-1.4,1.55-2.84,2.28-4.29
		c1.45-2.91,2.77-5.88,3.93-8.9c2.32-6.05,4.11-12.27,5.13-18.54c1.04-6.27,1.37-12.58,0.83-18.74c-0.08-1.55-0.35-3.07-0.53-4.6
		c-0.3-1.51-0.49-3.03-0.88-4.52c-0.62-3-1.61-5.9-2.63-8.76l-0.1-0.29c-1.57-4.43,0.75-9.29,5.18-10.86
		c4.43-1.57,9.29,0.75,10.86,5.18c0.05,0.15,0.11,0.33,0.15,0.48c1.07,3.69,2.05,7.42,2.6,11.21c0.36,1.88,0.49,3.79,0.73,5.69
		c0.11,1.9,0.3,3.8,0.29,5.7c0.17,7.6-0.73,15.12-2.41,22.35c-1.66,7.24-4.16,14.19-7.21,20.82c-1.53,3.31-3.21,6.55-5.04,9.7
		c-0.91,1.58-1.87,3.13-2.87,4.67c-0.5,0.77-1.01,1.53-1.54,2.3l-0.81,1.15l-0.91,1.23c-1.93,2.6-5.61,3.14-8.22,1.21
		c-2.49-1.85-3.09-5.3-1.45-7.87L685.92,307.56z"/>
</g>
<g>
	<path class="st1" d="M687.52,312.67c2.68,0.17,5.11,0.43,7.64,0.74c2.5,0.32,5,0.68,7.48,1.11c4.97,0.84,9.91,1.88,14.81,3.15
		c9.79,2.56,19.47,5.92,28.74,10.54c4.62,2.33,9.16,4.92,13.5,7.93c4.32,3.03,8.46,6.42,12.3,10.2c3.8,3.84,7.25,8.1,10.27,12.7
		c2.98,4.64,5.37,9.66,7.33,14.87c1.65,4.4-0.57,9.3-4.97,10.96s-9.3-0.57-10.96-4.97c-0.07-0.18-0.13-0.36-0.18-0.53l-0.08-0.26
		c-1.22-4.08-2.75-8.08-4.8-11.88c-2.1-3.76-4.58-7.36-7.45-10.73c-2.92-3.32-6.17-6.43-9.69-9.3c-3.54-2.85-7.36-5.43-11.33-7.81
		c-7.98-4.75-16.69-8.53-25.68-11.59c-4.5-1.52-9.09-2.85-13.73-3.99c-2.32-0.57-4.65-1.09-6.99-1.56c-2.31-0.46-4.74-0.89-6.94-1.2
		l-0.12-0.02c-2.3-0.32-3.9-2.43-3.59-4.73C683.39,314.1,685.35,312.54,687.52,312.67z"/>
</g>
<g>
</g>
<g>
</g>
<g>
</g>
<g>
</g>
<g>
</g>
<g>
</g>
<g>
</g>
<g>
</g>
<g>
</g>
<g>
</g>
<g>
</g>
</svg>
