<?xml version="1.0" encoding="utf-8"?>
<!-- Generator: Adobe Illustrator 24.2.3, SVG Export Plug-In . SVG Version: 6.00 Build 0)  -->
<svg version="1.1" id="Layer1" xmlns="http://www.w3.org/2000/svg" xmlns:xlink="http://www.w3.org/1999/xlink" x="0px" y="0px"
	 viewBox="0 0 1024 1024" style="enable-background:new 0 0 1024 1024;" xml:space="preserve">
<style type="text/css">
	.st0{fill:#CF1900;stroke:#A5212D;stroke-width:22;stroke-miterlimit:10;}
	.st1{fill:#FFFFFF;stroke:#000000;stroke-width:10;stroke-miterlimit:10;}
	.st2{fill:#FFFFFF;}
</style>
<g>
	<path class="st0" d="M72.65,553.06c98.82,69.89,831.51,77.13,900.2-6.03c63.24-51.6,24.1-485.65-467.57-529.03
		C114.83,18,13.6,494.01,72.65,553.06z"/>
	<path class="st1" d="M361.87,613.31c13.85,66.25-34.95,279.58-36.15,322.96c9.64,94,388.04,100.02,401.29,14.46
		c16.93-53.85-62.68-287.41-32.54-339.83"/>
	<ellipse class="st2" cx="357.65" cy="475.93" rx="60.86" ry="75.92"/>
	
		<ellipse transform="matrix(0.4712 -0.882 0.882 0.4712 -43.4444 767.9741)" class="st2" cx="618.77" cy="420.22" rx="60.86" ry="75.92"/>
	
		<ellipse transform="matrix(0.4712 -0.882 0.882 0.4712 232.7149 634.1519)" class="st2" cx="645.24" cy="122.99" rx="35.39" ry="75.92"/>
	
		<ellipse transform="matrix(0.7759 -0.6308 0.6308 0.7759 -82.1616 656.7782)" class="st2" cx="883.42" cy="444.04" rx="44.15" ry="75.92"/>
	
		<ellipse transform="matrix(0.4712 -0.882 0.882 0.4712 29.5264 543.7421)" class="st2" cx="468.25" cy="247.25" rx="30.25" ry="37.73"/>
	<ellipse transform="matrix(0.5 -0.866 0.866 0.5 155.2655 798.3602)" class="st2" cx="769.03" cy="264.72" rx="37.73" ry="24.1"/>
	
		<ellipse transform="matrix(0.4712 -0.882 0.882 0.4712 58.2078 383.7816)" class="st2" cx="349.18" cy="143.35" rx="43.43" ry="54.18"/>
	
		<ellipse transform="matrix(0.0497 -0.9988 0.9988 0.0497 -197.3875 499.232)" class="st2" cx="163.65" cy="353.34" rx="75.25" ry="41.85"/>
</g>
<g>
</g>
<g>
</g>
<g>
</g>
<g>
</g>
<g>
</g>
<g>
</g>
<g>
</g>
<g>
</g>
<g>
</g>
<g>
</g>
<g>
</g>
</svg>
