<?xml version="1.0" encoding="utf-8"?>
<!-- Generator: Adobe Illustrator 24.2.3, SVG Export Plug-In . SVG Version: 6.00 Build 0)  -->
<svg version="1.1" id="Layer1" xmlns="http://www.w3.org/2000/svg" xmlns:xlink="http://www.w3.org/1999/xlink" x="0px" y="0px"
	 viewBox="0 0 64 64" style="enable-background:new 0 0 64 64;" xml:space="preserve">
<style type="text/css">
	.st0{fill:#CF1900;stroke:#A5212D;stroke-width:1.0818;stroke-miterlimit:10;}
	.st1{fill:#FFFFFF;stroke:#000000;stroke-width:0.4917;stroke-miterlimit:10;}
	.st2{fill:#FFFFFF;}
	.st3{fill:none;}
</style>
<g>
	<path class="st0" d="M9.7,33.9c4.9,3.4,40.9,3.8,44.3-0.3c3.1-2.5,1.2-23.9-23-26C11.8,7.6,6.8,31,9.7,33.9z"/>
	<path class="st1" d="M23.9,36.9c0.7,3.3-1.7,13.7-1.8,15.9c0.5,4.6,19.1,4.9,19.7,0.7c0.8-2.6-3.1-14.1-1.6-16.7"/>
	<ellipse class="st2" cx="23.7" cy="30.1" rx="3" ry="3.7"/>
	<ellipse transform="matrix(0.4712 -0.882 0.882 0.4712 -4.8221 46.6977)" class="st2" cx="36.5" cy="27.4" rx="3" ry="3.7"/>
	<ellipse transform="matrix(0.4712 -0.882 0.882 0.4712 8.7614 40.1128)" class="st2" cx="37.8" cy="12.7" rx="1.7" ry="3.7"/>
	<ellipse transform="matrix(0.7759 -0.6308 0.6308 0.7759 -6.9026 37.651)" class="st2" cx="49.5" cy="28.5" rx="2.2" ry="3.7"/>
	<ellipse transform="matrix(0.4712 -0.882 0.882 0.4712 -1.2288 35.6713)" class="st2" cx="29.1" cy="18.9" rx="1.5" ry="1.9"/>
	<ellipse transform="matrix(0.5 -0.866 0.866 0.5 4.8793 47.8991)" class="st2" cx="43.9" cy="19.7" rx="1.9" ry="1.2"/>
	<ellipse transform="matrix(0.4712 -0.882 0.882 0.4712 0.1818 27.8001)" class="st2" cx="23.3" cy="13.7" rx="2.1" ry="2.7"/>
	
		<ellipse transform="matrix(4.969822e-02 -0.9988 0.9988 4.969822e-02 -10.5957 37.0245)" class="st2" cx="14.2" cy="24.1" rx="3.7" ry="2.1"/>
</g>
<rect x="-1.2" y="-2" class="st3" width="64.3" height="64.3"/>
<rect x="-0.3" y="-0.1" class="st3" width="64.3" height="64.3"/>
</svg>
