<?xml version="1.0" encoding="utf-8"?>
<!-- Generator: Adobe Illustrator 24.2.3, SVG Export Plug-In . SVG Version: 6.00 Build 0)  -->
<svg version="1.1" id="Layer1" xmlns="http://www.w3.org/2000/svg" xmlns:xlink="http://www.w3.org/1999/xlink" x="0px" y="0px"
	 viewBox="0 0 64 64" style="enable-background:new 0 0 64 64;" xml:space="preserve">
<style type="text/css">
	.st0{fill:#FBB03B;stroke:#000000;stroke-width:0.6778;stroke-miterlimit:10;}
	.st1{fill:none;stroke:#000000;stroke-width:1.4913;stroke-linecap:round;stroke-miterlimit:10;}
	.st2{fill:none;}
</style>
<g>
	<g>
		<path d="M33.9,14.4l0-1.9v-0.3l0.3-0.2L39,7.6l0.2-0.2c0.4-0.4,1.1-0.3,1.5,0.1c0.4,0.4,0.3,1.1-0.1,1.5c0,0-0.1,0.1-0.1,0.1
			L35,13l0.3-0.5l0,1.9c0,0.4-0.3,0.7-0.7,0.7C34.2,15,33.9,14.7,33.9,14.4z"/>
	</g>
	<path class="st0" d="M32,14.4c-5.4,0-9.9,2.4-10.7,5.6c3.1,0.7,6.5,1.1,10.2,1.1c4.1,0,7.9-0.5,11.2-1.4
		C41.6,16.7,37.2,14.4,32,14.4z"/>
	<path class="st0" d="M20.3,19.8c-4.2,3.8-6.8,9.7-6.8,16.2c0,11.5,8.3,20.9,18.5,20.9S50.5,47.5,50.5,36c0-6.7-2.8-12.6-7.1-16.4
		c-3.5,1-7.6,1.5-12,1.5C27.4,21.1,23.6,20.6,20.3,19.8z"/>
	<line class="st1" x1="31.9" y1="56.4" x2="31.9" y2="21.5"/>
	<path d="M26.8,27.6c1.1-0.4,3,1,3,2.6c0,1.1-0.9,2.3-2,2.3c-1.2,0-1.9-1.4-2-2.3S25.9,27.9,26.8,27.6z"/>
	<path d="M16.9,43C16.9,43,16.9,42.9,16.9,43c0.3-0.2,0.8,1.1,1.2,2.2c0.1,0.3,0.6,1.8,0.3,1.9c-0.2,0.1-0.8-1-1.2-1.7
		C17.2,45.4,16.6,44,16.9,43z"/>
	<path d="M36.9,27.3c0.6,0,1,0.3,1.2,0.5c0.3,0.2,1,0.9,0.9,1.7c-0.1,0.9-1.1,1.6-2,1.5c-1.3-0.2-1.5-1.9-1.5-2
		c0-0.3-0.1-0.8,0.3-1.2C36.1,27.4,36.7,27.3,36.9,27.3z"/>
	<path d="M43,22.9c0.1,0.1,1,0.6,0.9,1.4c-0.1,0.5-0.5,0.9-0.9,0.9c-0.7,0-1-1.2-1.1-1.5c-0.1-0.3-0.2-0.8,0-1
		C42.1,22.5,42.7,22.8,43,22.9z"/>
	<path d="M47.1,34.1c0.1,0.2,0.3,0.8,0,1.5c-0.2,0.5-0.7,0.9-0.9,0.8c-0.4-0.2-0.2-1.5-0.1-1.7c0.1-0.4,0.2-1,0.4-1.1
		C46.8,33.3,47.1,34,47.1,34.1z"/>
	<path d="M28.4,48.4c-0.1,0.5-0.7,1.1-1.2,1.1c-0.8,0-1.3-1-1.5-1.5c-0.2-0.6-0.2-1.5,0.2-1.8C26.7,45.9,28.6,47.2,28.4,48.4z"/>
	<path d="M43.6,46.8c0.2,0.2,0.1,0.7-0.1,1.1c-0.5,1-1.8,1.3-1.8,0.8c0,0,0-0.1,0.2-0.4C42.4,47.5,43.3,46.5,43.6,46.8z"/>
	<path d="M22.8,39.2c-0.3,0.5-1.3,0.5-1.9-0.1c-0.3-0.4-0.4-1-0.4-1.1c-0.1-1,0.5-2.1,1-2.2C22.3,35.6,23.4,38.3,22.8,39.2z"/>
	<path d="M38.9,44.7c-0.8,0.4-1.9,0.2-2.2-0.5c-0.6-1,0.9-3.2,2.1-3.1c0.5,0,0.9,0.4,0.9,0.5C40.3,42.3,40.1,44.1,38.9,44.7z"/>
	<path d="M21.7,21.9c0.3,0.2,0.1,1.3-0.5,2.1c-0.7,0.9-2,1.5-2.3,1.2c-0.3-0.3,0.2-1.3,0.6-1.8C20.2,22.4,21.3,21.6,21.7,21.9z"/>
	<path d="M26.7,18c-0.4,0.2-1,1.8-0.5,1.9s1.3-0.4,1.6-0.7C28.1,18.8,27.1,17.9,26.7,18z"/>
	<path d="M35.2,19.4c0.4,0.4,2.5,0.4,2.4-0.1c-0.1-0.5-1-1.3-1.5-1.6C35.6,17.5,35,18.9,35.2,19.4z"/>
	<path d="M31.9,19.9c1.8,0.1,1.9,1.1,1.8,1.1h-1.8h-1.8c0,0-0.1-0.4,0-0.6C30.5,19.8,31.8,19.9,31.9,19.9z"/>
	<g>
		<path d="M28.6,14.3l0-1.9l0.3,0.5l-5.6-3.8c-0.5-0.3-0.6-1-0.3-1.5c0.3-0.5,1-0.6,1.5-0.3c0,0,0.1,0,0.1,0.1l0.2,0.2l4.9,4.3
			l0.3,0.2v0.3l0,1.9c0,0.4-0.3,0.7-0.7,0.7C28.9,15,28.6,14.7,28.6,14.3z"/>
	</g>
</g>
<rect class="st2" width="64.3" height="64.3"/>
</svg>
