<?xml version="1.0" encoding="utf-8"?>
<!-- Generator: Adobe Illustrator 24.2.3, SVG Export Plug-In . SVG Version: 6.00 Build 0)  -->
<svg version="1.1" id="Layer1" xmlns="http://www.w3.org/2000/svg" xmlns:xlink="http://www.w3.org/1999/xlink" x="0px" y="0px"
	 viewBox="0 0 64 64" style="enable-background:new 0 0 64 64;" xml:space="preserve">
<style type="text/css">
	.st0{fill:#8CC63F;stroke:#006837;stroke-width:0.6314;stroke-linejoin:round;stroke-miterlimit:10;}
	.st1{fill:#006837;}
</style>
<g>
	<path class="st0" d="M8.86,45.3c0.76,1,7.45,7.51,14.97,6.69s14.83-5.48,19.83-12.57c4.99-6.63,14.6-17.71,19.31-18.18
		c0.14-0.01,0.17-0.19,0.05-0.26c-4.19-2.28-9.15-4.97-17.91-7.39c-9.07-2.5-20.52-2.85-29.93,3.66C7.35,22.68,1.73,35.91,8.86,45.3
		z"/>
	<g>
		<path class="st1" d="M62.18,21.2c-5.71-0.87-11.6-0.84-17.26,0.19c-2.83,0.52-5.61,1.32-8.24,2.47l-1.94,0.93l-1.87,1.07
			c-0.63,0.34-1.24,0.73-1.83,1.14c-0.59,0.41-1.21,0.77-1.77,1.23c-2.33,1.68-4.38,3.7-6.32,5.84c-1.94,2.14-3.84,4.4-6.1,6.35
			c-2.23,1.98-4.79,3.58-7.46,4.85c-1.32,0.69-2.71,1.2-4.07,1.76c-1.38,0.5-2.77,1.04-4.25,1.19C0.74,48.25,0.44,48,0.41,47.67
			C0.38,47.43,0.5,47.2,0.7,47.09l0.04-0.02c1.27-0.77,2.69-1.05,4.03-1.56c1.33-0.52,2.69-0.99,3.96-1.64
			c2.59-1.19,5.04-2.67,7.2-4.53c2.18-1.83,4.08-4,6.08-6.14c2-2.14,4.16-4.19,6.58-5.89c0.58-0.46,1.23-0.82,1.84-1.23
			c0.61-0.41,1.24-0.8,1.89-1.14l1.93-1.07l2.02-0.93c2.73-1.14,5.59-1.92,8.49-2.4c2.9-0.47,5.84-0.65,8.77-0.6
			c2.93,0.06,5.84,0.3,8.73,0.84c0.12,0.02,0.2,0.14,0.17,0.26c-0.02,0.12-0.13,0.19-0.25,0.18L62.18,21.2z"/>
	</g>
	<g>
		<path class="st1" d="M19.16,36.88c1.11,0.26,2.17,0.58,3.22,0.96c1.05,0.38,2.09,0.82,3.08,1.36c1,0.53,1.97,1.14,2.82,1.93
			c0.85,0.78,1.61,1.73,2.02,2.9c0.1,0.28-0.05,0.59-0.33,0.68c-0.28,0.1-0.59-0.05-0.68-0.33c0,0,0,0,0-0.01l-0.01-0.02
			c-0.31-0.94-0.94-1.77-1.69-2.49c-0.75-0.73-1.65-1.32-2.59-1.84c-1.87-1.05-3.95-1.81-6.03-2.35l-0.02,0
			c-0.22-0.06-0.35-0.28-0.29-0.5C18.73,36.96,18.94,36.83,19.16,36.88z"/>
	</g>
	<g>
		<path class="st1" d="M16.91,39.19c0.41-2.41,0.62-4.91,0.49-7.35c-0.07-1.22-0.21-2.44-0.53-3.59c-0.32-1.15-0.79-2.26-1.52-3.13
			l-0.01-0.01c-0.19-0.23-0.16-0.56,0.06-0.76s0.56-0.16,0.76,0.06c0,0,0.01,0.01,0.01,0.01c0.87,1.06,1.36,2.32,1.68,3.57
			c0.33,1.26,0.45,2.54,0.49,3.8c0.05,1.27,0,2.54-0.12,3.79c-0.12,1.26-0.28,2.5-0.53,3.75c-0.04,0.21-0.25,0.35-0.46,0.31
			c-0.21-0.04-0.34-0.24-0.31-0.45L16.91,39.19z"/>
	</g>
	<g>
		<path class="st1" d="M25.37,30.35c0.28-1.77,0.35-3.61,0.19-5.4c-0.17-1.79-0.61-3.55-1.47-5.05l-0.01-0.01
			c-0.15-0.26-0.06-0.59,0.2-0.73c0.26-0.15,0.59-0.06,0.73,0.2c0,0.01,0.01,0.01,0.01,0.02c0.91,1.74,1.29,3.64,1.4,5.52
			c0.09,1.88-0.04,3.74-0.41,5.59c-0.04,0.18-0.21,0.29-0.38,0.26c-0.17-0.03-0.29-0.2-0.26-0.37L25.37,30.35z"/>
	</g>
	<g>
		<path class="st1" d="M26.66,29.31c1.2,0.12,2.36,0.36,3.51,0.69c1.14,0.34,2.26,0.77,3.33,1.33c1.06,0.58,2.05,1.3,2.92,2.17
			c0.85,0.89,1.5,1.97,1.97,3.13c0.11,0.28-0.02,0.59-0.3,0.7c-0.28,0.11-0.59-0.02-0.7-0.3c0,0,0-0.01,0-0.01l-0.01-0.04
			c-0.38-1.03-0.92-2-1.66-2.83c-0.76-0.81-1.65-1.51-2.63-2.09c-0.98-0.57-2.04-1.01-3.13-1.37c-1.09-0.35-2.22-0.63-3.35-0.77
			l-0.01,0c-0.17-0.02-0.29-0.18-0.27-0.34C26.35,29.41,26.5,29.29,26.66,29.31z"/>
	</g>
	<g>
		<path class="st1" d="M33.01,24.84c0.27-0.54,0.46-1.19,0.55-1.82c0.09-0.64,0.11-1.29,0.03-1.92c-0.09-0.63-0.22-1.27-0.47-1.86
			c-0.22-0.6-0.54-1.17-0.88-1.71l-0.01-0.02c-0.16-0.25-0.08-0.58,0.18-0.74c0.25-0.16,0.58-0.08,0.74,0.18
			c0,0.01,0.01,0.02,0.01,0.02c0.34,0.63,0.67,1.27,0.88,1.96c0.24,0.68,0.35,1.39,0.42,2.11c0.05,0.72,0,1.44-0.14,2.14
			c-0.15,0.71-0.36,1.37-0.73,2.03c-0.09,0.16-0.29,0.22-0.45,0.13c-0.15-0.09-0.21-0.28-0.13-0.44L33.01,24.84z"/>
	</g>
	<g>
		<path class="st1" d="M34.11,24.42c1.57,0.49,3.03,1.19,4.38,2.15c0.66,0.49,1.28,1.05,1.83,1.69c0.53,0.66,0.96,1.41,1.26,2.23
			c0.1,0.28-0.04,0.59-0.32,0.69c-0.28,0.1-0.59-0.04-0.69-0.32c0-0.01-0.01-0.01-0.01-0.02l-0.01-0.03
			c-0.22-0.69-0.54-1.35-0.98-1.96c-0.46-0.59-0.99-1.14-1.59-1.63c-1.2-0.95-2.6-1.72-4.05-2.26l-0.02-0.01
			c-0.15-0.05-0.22-0.22-0.17-0.37C33.81,24.45,33.96,24.38,34.11,24.42z"/>
	</g>
	<g>
		<path class="st1" d="M42.39,20.9c0.21-0.32,0.4-0.71,0.54-1.08c0.15-0.38,0.26-0.78,0.32-1.17c0.07-0.4,0.08-0.79,0.05-1.18
			c-0.02-0.39-0.13-0.77-0.25-1.13l-0.01-0.04c-0.09-0.28,0.06-0.59,0.34-0.68c0.28-0.09,0.59,0.06,0.68,0.34
			c0,0.01,0.01,0.02,0.01,0.03c0.13,0.47,0.23,0.95,0.22,1.43c0.01,0.48-0.04,0.96-0.15,1.41c-0.11,0.46-0.26,0.9-0.45,1.32
			c-0.2,0.42-0.41,0.81-0.71,1.2c-0.12,0.16-0.35,0.2-0.52,0.08c-0.16-0.12-0.2-0.33-0.09-0.5L42.39,20.9z"/>
	</g>
	<g>
		<path class="st1" d="M42.49,21.22c1.28,0.11,2.52,0.41,3.7,0.98c0.58,0.3,1.14,0.67,1.63,1.14c0.48,0.49,0.86,1.08,1.11,1.74
			c0.11,0.28-0.03,0.59-0.31,0.7c-0.28,0.11-0.59-0.03-0.7-0.31c0-0.01-0.01-0.02-0.01-0.03l-0.01-0.03c-0.16-0.51-0.42-1-0.77-1.43
			c-0.37-0.42-0.83-0.78-1.33-1.08c-1.01-0.59-2.19-0.97-3.37-1.16l-0.02,0c-0.14-0.02-0.24-0.16-0.22-0.3
			C42.23,21.31,42.35,21.21,42.49,21.22z"/>
	</g>
</g>
<g>
</g>
<g>
</g>
<g>
</g>
<g>
</g>
<g>
</g>
<g>
</g>
<g>
</g>
<g>
</g>
<g>
</g>
<g>
</g>
<g>
</g>
</svg>
